inDegrees=no
num_controls=7
num_derivatives=13
num_iterations=56
num_multipliers=7
num_parameters=0
num_slacks=7
num_states=26
objective=0.445897
objective_accelerations=0.056310
objective_balance=0.002643
objective_effort=0.022069
objective_height=0.359426
objective_ligament=0.005449
solver_duration=860.886590
status=Solve_Succeeded
success=true
DataType=double
version=3
OpenSimVersion=4.5
endheader
time	/jointset/ground_pelvis/pelvis_tilt/value	/jointset/ground_pelvis/pelvis_tx/value	/jointset/ground_pelvis/pelvis_ty/value	/jointset/hip_l/hip_flexion_l/value	/jointset/hip_l/hip_adduction_l/value	/jointset/hip_l/hip_rotation_l/value	/jointset/back/lumbar_extension/value	/jointset/patellofemoral_l/patellar_flexion_l/value	/jointset/knee_l/knee_flexion_l/value	/jointset/knee_l/knee_adduction_l/value	/jointset/knee_l/knee_rotation_l/value	/jointset/ankle_l/ankle_angle_l/value	/jointset/subtalar_l/subtalar_angle_l/value	/jointset/ground_pelvis/pelvis_tilt/speed	/jointset/ground_pelvis/pelvis_tx/speed	/jointset/ground_pelvis/pelvis_ty/speed	/jointset/hip_l/hip_flexion_l/speed	/jointset/hip_l/hip_adduction_l/speed	/jointset/hip_l/hip_rotation_l/speed	/jointset/back/lumbar_extension/speed	/jointset/patellofemoral_l/patellar_flexion_l/speed	/jointset/knee_l/knee_flexion_l/speed	/jointset/knee_l/knee_adduction_l/speed	/jointset/knee_l/knee_rotation_l/speed	/jointset/ankle_l/ankle_angle_l/speed	/jointset/subtalar_l/subtalar_angle_l/speed	/forceset/tau_hip_flexion_l	/forceset/tau_hip_adduction_l	/forceset/tau_hip_rotation_l	/forceset/tau_knee_flexion_l	/forceset/tau_ankle_angle_l	/forceset/tau_subtalar_angle_l	/forceset/tau_lumbar_extension	lambda_cid13_p0	lambda_cid13_p1	lambda_cid13_p2	lambda_cid13_p3	lambda_cid13_p4	lambda_cid13_p5	lambda_cid14_p0	/jointset/ground_pelvis/pelvis_tilt/accel	/jointset/ground_pelvis/pelvis_tx/accel	/jointset/ground_pelvis/pelvis_ty/accel	/jointset/hip_l/hip_flexion_l/accel	/jointset/hip_l/hip_adduction_l/accel	/jointset/hip_l/hip_rotation_l/accel	/jointset/back/lumbar_extension/accel	/jointset/patellofemoral_l/patellar_flexion_l/accel	/jointset/knee_l/knee_flexion_l/accel	/jointset/knee_l/knee_adduction_l/accel	/jointset/knee_l/knee_rotation_l/accel	/jointset/ankle_l/ankle_angle_l/accel	/jointset/subtalar_l/subtalar_angle_l/accel	gamma_cid13_p0	gamma_cid13_p1	gamma_cid13_p2	gamma_cid13_p3	gamma_cid13_p4	gamma_cid13_p5	gamma_cid14_p0
0.5	-0.2928694831093986	-0.01318983124358667	0.7650357773470073	1.031879119361956	-0.4375903580635675	-0.2130073440253764	-0.2537604371606747	0.8371449724165149	0.8371449724165474	-0.1183226495695122	-0.1525029199655357	0.1630866269707204	-0.002524568347073099	-0.6583690615716259	-0.1485603357732667	-0.5181474059388456	2.296613715175389	-0.2155909250566792	0.7373225759470864	-0.1201625699662773	2.06968398264008	2.069683982640049	0.1503832782193628	-0.1011339194262612	0.6098710288136509	0.07920559704993262	-0.1466067077917341	0.06000075545093143	-0.01220091862632956	-0.2326100730086325	0.06415969352359358	0.008866219366900616	0.1524290514516232	-12.54888451344027	-3.522368179058975	2.360477846296473	-5.487572938875573	-521.9976259889087	-32.3989897795738	-23.55497627052343	0.6082587803639838	0.5308498757116175	-0.4806273468047246	-1.18820568699133	0.6694056446871695	-0.301666436533884	1.057299691463374	-1.317072741742588	-1.317072741742604	0.09850396848995477	0.09970328149282114	-0.5636913007528772	0.4894553816499427	-6.021989547220405e-07	-2.810927457674672e-07	3.519399542211266e-06	2.176040659494168e-07	-7.311318055660524e-07	-2.795257365776936e-07	-4.891715034514661e-07
0.51	-0.299421063327683	-0.01464868296760462	0.7598314531886278	1.054781104175048	-0.4397140263142239	-0.2056466552895358	-0.2549101689547412	0.8577725377685015	0.8577725377684736	-0.1168193415638135	-0.153508020366455	0.1691557405563249	-0.001710285206512469	-0.6518460899762659	-0.1431959307511206	-0.5226017714304156	2.283447219264096	-0.2091340532893509	0.7347663794814839	-0.1098099815933555	2.05553917185031	2.055539171850315	0.1502223265320363	-0.09984819344698694	0.6038598631928486	0.08362046811245681	-0.151622015163603	0.06089205861430048	-0.01222268485290459	-0.235432769361124	0.06232442393037267	0.009294571843430032	0.1563358200733208	-13.31412874188417	-3.495228081798753	2.265701790992473	-5.236486446401578	-525.5530122142525	-32.17833856123737	-22.59558786728124	0.6893734654473355	0.5413943016225131	-0.4106375162594402	-1.431366741052652	0.6346626421328326	-0.2403618964894137	1.020309498357798	-1.5065757223959	-1.506575722390676	-0.08170083066242854	0.1493974432537256	-0.6335885214894736	0.4125362569668518	-5.838469782274394e-07	-1.499304562009961e-07	3.573707660615592e-06	2.494245622044605e-07	-7.1506963620861e-07	-1.734779249656352e-07	-4.807225086421329e-07
0.52	-0.3059044024067261	-0.01605345894417055	0.7545860261021484	1.077541324989534	-0.4417729589073199	-0.1983130816473451	-0.2559571606474205	0.8782499769176002	0.8782499769175325	-0.1153193042936904	-0.1544989854701425	0.1751619906199736	-0.0008528466976438193	-0.6447208337278961	-0.1377451862828614	-0.5263679915589038	2.268260915438613	-0.2026437935469579	0.731899557219255	-0.09961454969439786	2.03965874206848	2.039658742068522	0.1497291311119773	-0.09830685998336305	0.5972983244222325	0.08783667071150687	-0.1566373225348617	0.06178336177773204	-0.01224445107977624	-0.2382554657135691	0.06048915433712477	0.00972292432002435	0.1602425886956046	-14.0824158211452	-3.468853537879553	2.172532852979856	-5.02652886885578	-529.174671151824	-32.02515272011092	-21.63900479633012	0.7287157109658954	0.5481177649342923	-0.3429982741883286	-1.592167269829492	0.6760832397000348	-0.3637915958591663	1.025868396670774	-1.66419654015456	-1.66419654015456	0.03205522194342094	0.1508247783627086	-0.67376593071555	0.4497216889551049	-5.640413839680194e-07	-3.356511434769047e-08	3.622766133659363e-06	2.811523233725795e-07	-6.999370903251251e-07	-6.146407698744484e-08	-4.729828293346871e-07
0.53	-0.312313699058116	-0.01740340491642758	0.7493064014923111	1.100140046798259	-0.4437666800511817	-0.1910099738571268	-0.2569030493421804	0.8985601592914197	0.8985601592913102	-0.1138253666450134	-0.1554734586762811	0.1810999474702377	4.59588864873706e-05	-0.6370493929219808	-0.1322396941530193	-0.5294385786792103	2.251173814110282	-0.1960864721443522	0.7286066847761028	-0.0896049010754341	2.022105611824851	2.022105611824924	0.1490692540717279	-0.09658948845132778	0.5902060663914287	0.09190375780871739	-0.1615215602867765	0.06261206276206836	-0.01219666354971672	-0.2411448002272361	0.05865074321545631	0.009933991381594596	0.1639945650545311	-14.86058294654438	-3.334572756678426	2.048669493221411	-4.683836794172921	-532.779267022371	-31.72348102239394	-20.69040860731127	0.7996470378916728	0.552471602857681	-0.271474569309899	-1.813517551220195	0.6471482284188508	-0.3297609547555037	0.9822563220201088	-1.841595612785446	-1.841595612780958	-0.1132671522373961	0.1826555635033387	-0.7399731918266033	0.3816667398459651	-5.394294673686564e-07	7.875323680755388e-08	3.639709737295854e-06	3.08516423002751e-07	-6.794438067264058e-07	4.895841677829881e-08	-4.616656152555833e-07
0.54	-0.3186436235469272	-0.01869815463421712	0.7439995938836002	1.122558590396401	-0.4456945096534285	-0.1837433399686007	-0.2577500929052197	0.918686665493494	0.9186866654933865	-0.1123376793637988	-0.1564306657225471	0.186964378249682	0.0009847282455392485	-0.6288464012165641	-0.126705935389362	-0.5318045913337485	2.23222527330653	-0.1894654852266392	0.7246047768844657	-0.07984552335604714	2.002923507728493	2.002923507728597	0.148479057622349	-0.09485362800412182	0.58259311025808	0.09582942569560286	-0.1664057980381105	0.06344076374644073	-0.01214887601945299	-0.2440341347408906	0.05681233209374806	0.01014505844318377	0.167746541414029	-15.64053691590184	-3.200688209268376	1.925681609240095	-4.386118881082902	-536.4310983429199	-31.48393048743181	-19.75354269719527	0.8350258908662065	0.5537710916973332	-0.202083381034682	-1.964455164913805	0.6888163427214641	-0.505598685556169	0.9758142167557303	-1.989991310700233	-1.989991310700215	0.04599134011747537	0.1545225613967968	-0.7779055512245246	0.4214378468900514	-5.094999175421223e-07	1.865940663394112e-07	3.621121996056206e-06	3.310526417824275e-07	-6.530194941661508e-07	1.576202633302717e-07	-4.46390277599326e-07
